<?xml version="1.0" encoding="utf-8"?>
<!-- Generator: Adobe Illustrator 16.0.4, SVG Export Plug-In . SVG Version: 6.00 Build 0)  -->
<!DOCTYPE svg PUBLIC "-//W3C//DTD SVG 1.1//EN" "http://www.w3.org/Graphics/SVG/1.1/DTD/svg11.dtd">
<svg version="1.1" id="Ebene_1" xmlns="http://www.w3.org/2000/svg" xmlns:xlink="http://www.w3.org/1999/xlink" x="0px" y="0px"
	 width="120px" height="120px" viewBox="0 0 120 120" enable-background="new 0 0 120 120" xml:space="preserve">
<rect fill="#FFFFFF" width="120" height="120"/>
<g>
	<path fill="#E0E0E0" d="M109.354,99.478c-0.502-2.806-1.138-5.404-1.903-7.801c-0.767-2.397-1.797-4.732-3.093-7.011
		c-1.294-2.276-2.778-4.217-4.455-5.823c-1.681-1.604-3.729-2.887-6.148-3.846c-2.421-0.958-5.094-1.438-8.017-1.438
		c-0.431,0-1.437,0.516-3.02,1.545c-1.581,1.032-3.367,2.182-5.355,3.45c-1.99,1.271-4.578,2.421-7.765,3.451
		C66.41,83.037,63.21,83.552,60,83.552c-3.211,0-6.41-0.515-9.598-1.546c-3.188-1.03-5.777-2.181-7.765-3.451
		c-1.991-1.269-3.774-2.418-5.355-3.45c-1.582-1.029-2.588-1.545-3.02-1.545c-2.926,0-5.598,0.479-8.017,1.438
		c-2.42,0.959-4.471,2.241-6.146,3.846c-1.681,1.606-3.164,3.547-4.458,5.823c-1.294,2.278-2.326,4.613-3.092,7.011
		c-0.767,2.396-1.402,4.995-1.906,7.801c-0.502,2.803-0.839,5.415-1.006,7.835c-0.168,2.421-0.252,4.902-0.252,7.44
		c0,1.884,0.207,3.624,0.582,5.247h100.063c0.375-1.623,0.582-3.363,0.582-5.247c0-2.538-0.084-5.02-0.253-7.44
		C110.192,104.893,109.857,102.28,109.354,99.478z"/>
	<path fill="#E0E0E0" d="M60,78.16c7.62,0,14.126-2.696,19.52-8.088c5.392-5.393,8.088-11.898,8.088-19.519
		s-2.696-14.126-8.088-19.519C74.126,25.643,67.62,22.946,60,22.946s-14.128,2.697-19.519,8.089
		c-5.394,5.392-8.089,11.897-8.089,19.519s2.695,14.126,8.089,19.519C45.872,75.464,52.38,78.16,60,78.16z"/>
</g>
</svg>
